<?xml version="1.0" encoding="UTF-8"?>
<svg xmlns="http://www.w3.org/2000/svg" xmlns:xlink="http://www.w3.org/1999/xlink" width="2700" height="2205" viewBox="0 0 2700 2205">

<path fill-rule="evenodd" fill="rgb(100%, 100%, 100%)" fill-opacity="1" d="M 2268.941406 918.101562 C 2020.460938 864.089844 1736.871094 766.851562 1410.070312 772.261719 C 1209.300781 788.460938 943.71875 961.320312 848.289062 974.820312 C 448.566406 955.921875 268.957031 1027.480469 75.847656 1154.429688 C 72 1158.589844 73.144531 1169.730469 71.792969 1177.378906 C 61.792969 1186.738281 51.296875 1198.089844 44.792969 1208.441406 C 97.972656 1191.089844 123.566406 1180.078125 205.488281 1182.789062 C 257.253906 1174.679688 331.976562 1119.320312 366.1875 1085.558594 C 377.890625 1105.359375 359.886719 1153.53125 351.332031 1182.789062 C 405.351562 1097.261719 545.792969 1022.539062 675.4375 1080.148438 C 814.980469 1039.640625 1054.460938 1055.851562 1285.828125 1099.058594 C 1129.179688 1050.441406 980.632812 1020.738281 815.878906 1009.929688 L 998.363281 999.199219 C 1319.699219 1015.25 1614.03125 1039.398438 1954.269531 1079.75 C 1697.25 1033.070312 1451.019531 1008 1183.199219 988.320312 L 1701.761719 964.019531 L 1626.128906 999.128906 C 1851.609375 1026.53125 2000.25 1039.191406 2223.03125 1080.148438 C 2321.160156 1038.738281 2381.46875 1037.839844 2468.800781 1090.960938 C 2507.679688 1128.089844 2518.230469 1151.039062 2542.941406 1219.332031 C 2540.339844 1168.960938 2534.898438 1121.421875 2509.628906 1076.710938 C 2566.238281 1041.851562 2610.871094 1018.960938 2679.46875 972.121094 C 2393.179688 902.800781 2209.519531 944.210938 1998.851562 939.710938 Z M 359.765625 1068.351562 C 318.804688 1069.46875 177.90625 1121.238281 110.609375 1170.300781 C 136.71875 1161.980469 166.878906 1151.621094 203.113281 1166.25 C 273.113281 1156.128906 340.410156 1097.378906 359.765625 1068.351562 Z M 1886.089844 890.421875 C 1833.429688 903.929688 1796.96875 917.429688 1760.5 943.089844 C 1741.601562 956.140625 1208.179688 961.101562 986.703125 966.050781 C 1068.179688 918.328125 1205.019531 836.859375 1332.421875 822.898438 C 1537.230469 796.789062 1759.601562 846.308594 1886.089844 890.421875 "/>
<path fill-rule="evenodd" fill="rgb(100%, 100%, 100%)" fill-opacity="1" d="M 290.578125 1168.359375 C 237.914062 1198.519531 177.144531 1254.339844 132.582031 1258.839844 C 95.21875 1257.035156 63.257812 1259.289062 25.894531 1241.28125 C 29.496094 1274.59375 62.132812 1308.578125 36.699219 1341.214844 C 122.226562 1335.363281 187.492188 1351.117188 236.5625 1376.324219 C 228.945312 1394.273438 215.34375 1404.734375 192.761719 1410.703125 C 210.128906 1415.304688 229.496094 1409.921875 247.367188 1406.035156 C 173.628906 1454.175781 76.722656 1427.128906 82.613281 1408.734375 C 90.265625 1387.128906 119.523438 1383.078125 174.441406 1384.429688 C 130.328125 1371.378906 81.339844 1357.792969 27.777344 1363.644531 C 34.527344 1383 32.351562 1416.949219 58.804688 1435.6875 C 87.203125 1454.277344 163.574219 1472.113281 257.390625 1457.4375 C 328.277344 1442.785156 269.152344 1415.578125 279.777344 1365.523438 C 285.625 1328.160156 267.171875 1302.953125 228.460938 1265.589844 C 231.609375 1237.230469 255.019531 1204.820312 290.578125 1168.359375 "/>
<path fill-rule="nonzero" fill="rgb(92.96875%, 1.997375%, 1.997375%)" fill-opacity="1" d="M 495.386719 1345.40625 L 410.238281 1345.40625 L 384.488281 1392.855469 L 339.085938 1392.855469 L 460.488281 1178.109375 L 509.585938 1178.109375 L 544.4375 1392.855469 L 502.535156 1392.855469 Z M 489.9375 1309.65625 L 477.488281 1223.207031 L 425.636719 1309.65625 Z M 616.386719 1178.109375 L 660.4375 1178.109375 L 636.136719 1294.707031 L 630.136719 1323.40625 C 629.738281 1325.855469 629.535156 1328.15625 629.535156 1330.308594 C 629.535156 1338.808594 632.636719 1345.808594 638.835938 1351.308594 C 645.035156 1356.855469 654.035156 1359.605469 665.886719 1359.605469 C 676.535156 1359.605469 685.285156 1357.605469 692.238281 1353.605469 C 699.1875 1349.605469 704.535156 1343.65625 708.335938 1335.707031 C 712.1875 1327.808594 716.035156 1314.40625 719.9375 1295.457031 L 744.535156 1178.109375 L 788.636719 1178.109375 L 764.1875 1295.605469 C 758.988281 1320.308594 753.035156 1339.207031 746.285156 1352.257812 C 739.535156 1365.355469 729.335938 1376.007812 715.6875 1384.207031 C 701.988281 1392.40625 684.738281 1396.507812 663.835938 1396.507812 C 638.835938 1396.507812 619.6875 1390.40625 606.386719 1378.15625 C 593.136719 1365.855469 586.488281 1350.15625 586.488281 1330.90625 C 586.488281 1326.90625 586.835938 1322.558594 587.488281 1317.855469 C 587.886719 1314.707031 589.585938 1305.855469 592.636719 1291.207031 Z M 881.488281 1392.855469 L 837.238281 1392.855469 L 874.738281 1214.007812 L 811.785156 1214.007812 L 819.238281 1178.109375 L 988.4375 1178.109375 L 980.988281 1214.007812 L 918.835938 1214.007812 Z M 979.785156 1308.605469 C 979.785156 1295.957031 981.738281 1282.558594 985.535156 1268.507812 C 990.488281 1249.65625 998.085938 1233.308594 1008.289062 1219.40625 C 1018.488281 1205.558594 1031.390625 1194.609375 1046.890625 1186.558594 C 1062.441406 1178.460938 1080.089844 1174.460938 1099.941406 1174.460938 C 1126.488281 1174.460938 1147.941406 1182.710938 1164.289062 1199.210938 C 1180.691406 1215.707031 1188.839844 1237.605469 1188.839844 1264.808594 C 1188.839844 1287.507812 1183.539062 1309.40625 1172.890625 1330.605469 C 1162.238281 1351.808594 1147.789062 1368.105469 1129.539062 1379.507812 C 1111.238281 1390.957031 1090.589844 1396.65625 1067.539062 1396.65625 C 1047.539062 1396.65625 1030.738281 1392.105469 1017.140625 1383.058594 C 1003.589844 1373.957031 993.988281 1362.707031 988.285156 1349.257812 C 982.636719 1335.855469 979.785156 1322.308594 979.785156 1308.605469 Z M 1023.441406 1307.757812 C 1023.441406 1322.507812 1027.941406 1334.855469 1036.941406 1344.808594 C 1045.941406 1354.757812 1057.738281 1359.757812 1072.390625 1359.757812 C 1084.289062 1359.757812 1095.738281 1355.808594 1106.738281 1347.957031 C 1117.738281 1340.105469 1126.789062 1328.207031 1133.988281 1312.207031 C 1141.140625 1296.257812 1144.738281 1280.707031 1144.738281 1265.558594 C 1144.738281 1248.65625 1140.191406 1235.40625 1131.140625 1225.808594 C 1122.039062 1216.15625 1110.488281 1211.355469 1096.390625 1211.355469 C 1074.839844 1211.355469 1057.289062 1221.40625 1043.738281 1241.558594 C 1030.238281 1261.65625 1023.441406 1283.707031 1023.441406 1307.757812 Z M 1322.738281 1392.855469 L 1280.839844 1392.855469 L 1273.089844 1213.40625 L 1238.941406 1392.855469 L 1199.089844 1392.855469 L 1243.941406 1178.109375 L 1306.890625 1178.109375 L 1313.488281 1328.558594 L 1386.738281 1178.109375 L 1450.488281 1178.109375 L 1405.488281 1392.855469 L 1365.191406 1392.855469 L 1407.539062 1214.707031 Z M 1463.039062 1308.605469 C 1463.039062 1295.957031 1464.988281 1282.558594 1468.789062 1268.507812 C 1473.738281 1249.65625 1481.339844 1233.308594 1491.539062 1219.40625 C 1501.738281 1205.558594 1514.640625 1194.609375 1530.140625 1186.558594 C 1545.691406 1178.460938 1563.339844 1174.460938 1583.191406 1174.460938 C 1609.738281 1174.460938 1631.191406 1182.710938 1647.539062 1199.210938 C 1663.941406 1215.707031 1672.089844 1237.605469 1672.089844 1264.808594 C 1672.089844 1287.507812 1666.789062 1309.40625 1656.140625 1330.605469 C 1645.488281 1351.808594 1631.039062 1368.105469 1612.789062 1379.507812 C 1594.488281 1390.957031 1573.839844 1396.65625 1550.789062 1396.65625 C 1530.789062 1396.65625 1513.988281 1392.105469 1500.390625 1383.058594 C 1486.839844 1373.957031 1477.238281 1362.707031 1471.539062 1349.257812 C 1465.890625 1335.855469 1463.039062 1322.308594 1463.039062 1308.605469 Z M 1506.691406 1307.757812 C 1506.691406 1322.507812 1511.191406 1334.855469 1520.191406 1344.808594 C 1529.191406 1354.757812 1540.988281 1359.757812 1555.640625 1359.757812 C 1567.539062 1359.757812 1578.988281 1355.808594 1589.988281 1347.957031 C 1600.988281 1340.105469 1610.039062 1328.207031 1617.238281 1312.207031 C 1624.390625 1296.257812 1627.988281 1280.707031 1627.988281 1265.558594 C 1627.988281 1248.65625 1623.441406 1235.40625 1614.390625 1225.808594 C 1605.289062 1216.15625 1593.738281 1211.355469 1579.640625 1211.355469 C 1558.089844 1211.355469 1540.539062 1221.40625 1526.988281 1241.558594 C 1513.488281 1261.65625 1506.691406 1283.707031 1506.691406 1307.757812 Z M 1775.941406 1392.855469 L 1731.691406 1392.855469 L 1769.191406 1214.007812 L 1706.238281 1214.007812 L 1713.691406 1178.109375 L 1882.890625 1178.109375 L 1875.441406 1214.007812 L 1813.289062 1214.007812 Z M 1863.839844 1392.855469 L 1908.789062 1178.109375 L 1952.890625 1178.109375 L 1908.089844 1392.855469 Z M 2056.488281 1392.855469 L 2009.289062 1392.855469 L 1970.789062 1178.109375 L 2014.890625 1178.109375 L 2042.089844 1340.558594 L 2131.039062 1178.109375 L 2174.839844 1178.109375 Z M 2149.191406 1392.855469 L 2194.039062 1178.109375 L 2353.238281 1178.109375 L 2345.789062 1214.007812 L 2230.789062 1214.007812 L 2220.539062 1262.757812 L 2331.691406 1262.757812 L 2324.238281 1298.65625 L 2213.039062 1298.65625 L 2199.589844 1356.957031 L 2324.539062 1356.957031 L 2316.941406 1392.855469 L 2149.191406 1392.855469 "/>
<path fill-rule="nonzero" fill="rgb(100%, 100%, 100%)" fill-opacity="1" d="M 747.914062 1446.511719 L 768.863281 1446.511719 L 774.136719 1485.234375 C 775.464844 1495.210938 776.1875 1502.1875 776.339844 1506.1875 C 779.0625 1498.238281 782.8125 1489.835938 787.613281 1481.011719 L 806.214844 1446.511719 L 828.488281 1446.511719 L 780.4375 1531.910156 C 776.488281 1538.984375 773.363281 1543.9375 771.089844 1546.761719 C 768.8125 1549.613281 766.089844 1551.835938 762.886719 1553.4375 C 759.6875 1555.035156 755.839844 1555.859375 751.363281 1555.859375 C 746.914062 1555.859375 741.914062 1555.0625 736.339844 1553.511719 L 738.164062 1537.835938 C 740.714844 1538.5625 743.1875 1538.9375 745.5625 1538.9375 C 752.011719 1538.9375 757.3125 1534.0625 761.464844 1524.285156 Z M 827.886719 1491.988281 C 827.886719 1477.585938 831.964844 1466.085938 840.089844 1457.535156 C 848.214844 1448.960938 858.914062 1444.660156 872.136719 1444.660156 C 883.613281 1444.660156 892.5625 1447.835938 899.011719 1454.160156 C 905.464844 1460.488281 908.6875 1468.988281 908.6875 1479.6875 C 908.6875 1492.285156 904.664062 1503.160156 896.589844 1512.335938 C 888.539062 1521.535156 877.738281 1526.113281 864.214844 1526.113281 C 856.886719 1526.113281 850.414062 1524.660156 844.738281 1521.710938 C 839.089844 1518.785156 834.863281 1514.636719 832.0625 1509.261719 C 829.289062 1503.910156 827.886719 1498.136719 827.886719 1491.988281 Z M 887.8125 1476.960938 C 887.8125 1471.988281 886.363281 1468.011719 883.4375 1464.988281 C 880.539062 1461.988281 876.789062 1460.488281 872.214844 1460.488281 C 867.664062 1460.488281 863.636719 1461.886719 860.113281 1464.710938 C 856.613281 1467.511719 853.863281 1471.585938 851.914062 1476.9375 C 849.964844 1482.285156 848.988281 1487.210938 848.988281 1491.6875 C 848.988281 1497.261719 850.511719 1501.6875 853.539062 1504.960938 C 856.5625 1508.210938 860.363281 1509.863281 864.964844 1509.863281 C 870.714844 1509.863281 875.5625 1507.386719 879.464844 1502.460938 C 885.011719 1495.488281 887.8125 1486.988281 887.8125 1476.960938 Z M 932.5625 1446.511719 L 953.585938 1446.511719 L 943.988281 1492.5625 C 942.8125 1498.085938 942.214844 1501.535156 942.214844 1502.910156 C 942.214844 1505.136719 943.0625 1507.085938 944.710938 1508.6875 C 946.386719 1510.285156 948.488281 1511.113281 951.089844 1511.113281 C 952.9375 1511.113281 954.761719 1510.738281 956.589844 1510.035156 C 958.386719 1509.335938 960.238281 1508.261719 962.136719 1506.8125 C 964.0625 1505.386719 965.761719 1503.738281 967.261719 1501.886719 C 968.789062 1500.011719 970.214844 1497.585938 971.511719 1494.5625 C 972.4375 1492.3125 973.464844 1488.636719 974.511719 1483.5625 L 982.289062 1446.511719 L 1003.308594 1446.511719 L 987.035156 1524.285156 L 967.414062 1524.285156 L 969.613281 1513.738281 C 961.011719 1521.988281 951.660156 1526.113281 941.5625 1526.113281 C 935.160156 1526.113281 930.136719 1524.285156 926.488281 1520.636719 C 922.8125 1516.960938 920.988281 1512.0625 920.988281 1505.910156 C 920.988281 1503.210938 921.8125 1497.863281 923.460938 1489.859375 Z M 1023.160156 1446.511719 L 1042.789062 1446.511719 L 1039.640625 1461.585938 C 1046.960938 1450.3125 1054.890625 1444.660156 1063.441406 1444.660156 C 1066.460938 1444.660156 1069.710938 1445.4375 1073.191406 1446.9375 L 1065.109375 1464.160156 C 1063.210938 1463.460938 1061.191406 1463.136719 1059.039062 1463.136719 C 1055.441406 1463.136719 1051.761719 1464.488281 1048.011719 1467.238281 C 1044.289062 1469.960938 1041.359375 1473.613281 1039.261719 1478.1875 C 1037.160156 1482.738281 1035.089844 1489.988281 1033.039062 1499.886719 L 1027.910156 1524.285156 L 1006.890625 1524.285156 Z M 1105.410156 1502.535156 L 1125.761719 1499.3125 C 1127.589844 1503.613281 1129.808594 1506.636719 1132.511719 1508.4375 C 1135.191406 1510.210938 1138.859375 1511.113281 1143.488281 1511.113281 C 1148.289062 1511.113281 1152.109375 1510.035156 1154.988281 1507.886719 C 1156.988281 1506.410156 1157.988281 1504.636719 1157.988281 1502.535156 C 1157.988281 1501.113281 1157.488281 1499.835938 1156.460938 1498.734375 C 1155.390625 1497.660156 1152.488281 1496.335938 1147.738281 1494.761719 C 1135.039062 1490.5625 1127.191406 1487.261719 1124.160156 1484.8125 C 1119.410156 1481.011719 1117.058594 1476.011719 1117.058594 1469.863281 C 1117.058594 1463.710938 1119.339844 1458.410156 1123.941406 1453.960938 C 1130.339844 1447.761719 1139.839844 1444.660156 1152.441406 1444.660156 C 1162.441406 1444.660156 1170.011719 1446.511719 1175.140625 1450.160156 C 1180.261719 1453.835938 1183.511719 1458.785156 1184.890625 1465.035156 L 1165.460938 1468.410156 C 1164.441406 1465.5625 1162.789062 1463.4375 1160.488281 1462.035156 C 1157.359375 1460.136719 1153.609375 1459.160156 1149.210938 1459.160156 C 1144.808594 1459.160156 1141.660156 1459.910156 1139.710938 1461.363281 C 1137.789062 1462.835938 1136.839844 1464.511719 1136.839844 1466.4375 C 1136.839844 1468.386719 1137.808594 1469.988281 1139.761719 1471.261719 C 1140.988281 1472.035156 1144.910156 1473.410156 1151.558594 1475.363281 C 1161.808594 1478.335938 1168.660156 1481.261719 1172.140625 1484.160156 C 1177.011719 1488.210938 1179.460938 1493.085938 1179.460938 1498.785156 C 1179.460938 1506.160156 1176.359375 1512.5625 1170.160156 1517.988281 C 1163.960938 1523.410156 1155.210938 1526.113281 1143.941406 1526.113281 C 1132.710938 1526.113281 1124.011719 1524.0625 1117.890625 1519.9375 C 1111.761719 1515.8125 1107.609375 1510.011719 1105.410156 1502.535156 Z M 1191.390625 1524.285156 L 1213.890625 1416.910156 L 1234.839844 1416.910156 L 1212.410156 1524.285156 Z M 1236.289062 1491.988281 C 1236.289062 1477.585938 1240.359375 1466.085938 1248.488281 1457.535156 C 1256.609375 1448.960938 1267.308594 1444.660156 1280.539062 1444.660156 C 1292.011719 1444.660156 1300.960938 1447.835938 1307.410156 1454.160156 C 1313.859375 1460.488281 1317.089844 1468.988281 1317.089844 1479.6875 C 1317.089844 1492.285156 1313.058594 1503.160156 1304.988281 1512.335938 C 1296.941406 1521.535156 1286.140625 1526.113281 1272.609375 1526.113281 C 1265.289062 1526.113281 1258.808594 1524.660156 1253.140625 1521.710938 C 1247.488281 1518.785156 1243.261719 1514.636719 1240.460938 1509.261719 C 1237.691406 1503.910156 1236.289062 1498.136719 1236.289062 1491.988281 Z M 1296.210938 1476.960938 C 1296.210938 1471.988281 1294.761719 1468.011719 1291.839844 1464.988281 C 1288.941406 1461.988281 1285.191406 1460.488281 1280.609375 1460.488281 C 1276.058594 1460.488281 1272.039062 1461.886719 1268.511719 1464.710938 C 1265.011719 1467.511719 1262.261719 1471.585938 1260.308594 1476.9375 C 1258.359375 1482.285156 1257.390625 1487.210938 1257.390625 1491.6875 C 1257.390625 1497.261719 1258.910156 1501.6875 1261.941406 1504.960938 C 1264.960938 1508.210938 1268.761719 1509.863281 1273.359375 1509.863281 C 1279.109375 1509.863281 1283.960938 1507.386719 1287.859375 1502.460938 C 1293.410156 1495.488281 1296.210938 1486.988281 1296.210938 1476.960938 Z M 1323.738281 1528.386719 L 1345.941406 1531.613281 C 1345.941406 1533.859375 1346.308594 1535.5625 1347.039062 1536.710938 C 1347.761719 1537.835938 1348.960938 1538.835938 1350.589844 1539.636719 C 1352.210938 1540.4375 1354.460938 1540.835938 1357.289062 1540.835938 C 1361.738281 1540.835938 1365.289062 1539.960938 1367.988281 1538.210938 C 1369.988281 1536.835938 1371.609375 1534.636719 1372.890625 1531.613281 C 1373.660156 1529.710938 1374.660156 1525.5625 1375.890625 1519.160156 L 1376.640625 1515.488281 C 1369.359375 1521.5625 1361.839844 1524.585938 1354.058594 1524.585938 C 1346.460938 1524.585938 1340.210938 1521.886719 1335.308594 1516.511719 C 1330.441406 1511.160156 1327.988281 1503.285156 1327.988281 1492.9375 C 1327.988281 1483.8125 1329.660156 1475.4375 1332.960938 1467.8125 C 1336.289062 1460.210938 1340.960938 1454.4375 1346.960938 1450.535156 C 1352.960938 1446.636719 1359.089844 1444.660156 1365.339844 1444.660156 C 1370.511719 1444.660156 1375.261719 1446.035156 1379.558594 1448.761719 C 1383.859375 1451.511719 1387.191406 1455.335938 1389.589844 1460.261719 L 1392.511719 1446.511719 L 1412.210938 1446.511719 L 1398.738281 1511.3125 C 1396.539062 1521.710938 1394.691406 1529.136719 1393.191406 1533.585938 C 1391.660156 1538.035156 1389.941406 1541.5625 1387.988281 1544.210938 C 1386.039062 1546.835938 1383.558594 1549.0625 1380.589844 1550.835938 C 1377.609375 1552.609375 1374.089844 1553.910156 1370.039062 1554.6875 C 1365.988281 1555.460938 1361.589844 1555.859375 1356.859375 1555.859375 C 1345.859375 1555.859375 1337.558594 1553.988281 1331.941406 1550.210938 C 1326.339844 1546.460938 1323.539062 1540.210938 1323.539062 1531.460938 C 1323.539062 1530.535156 1323.589844 1529.511719 1323.738281 1528.386719 Z M 1348.511719 1490.8125 C 1348.511719 1496.710938 1349.839844 1501.238281 1352.488281 1504.335938 C 1355.160156 1507.4375 1358.488281 1508.988281 1362.488281 1508.988281 C 1366.160156 1508.988281 1369.710938 1507.585938 1373.140625 1504.8125 C 1376.589844 1502.011719 1379.238281 1498.0625 1381.058594 1492.9375 C 1382.890625 1487.8125 1383.808594 1482.863281 1383.808594 1478.0625 C 1383.808594 1472.5625 1382.308594 1468.113281 1379.339844 1464.738281 C 1376.359375 1461.363281 1372.910156 1459.6875 1369.011719 1459.6875 C 1365.238281 1459.6875 1361.789062 1461.1875 1358.640625 1464.160156 C 1355.488281 1467.136719 1352.890625 1471.710938 1350.839844 1477.910156 C 1349.289062 1482.710938 1348.511719 1487.011719 1348.511719 1490.8125 Z M 1446.140625 1468.535156 L 1425.609375 1466.785156 C 1427.960938 1459.863281 1432.058594 1454.4375 1437.890625 1450.535156 C 1443.738281 1446.636719 1451.460938 1444.660156 1461.058594 1444.660156 C 1471.089844 1444.660156 1478.488281 1446.6875 1483.261719 1450.710938 C 1488.058594 1454.738281 1490.441406 1459.660156 1490.441406 1465.460938 C 1490.441406 1467.8125 1490.238281 1470.3125 1489.808594 1472.9375 C 1489.410156 1475.585938 1487.960938 1482.511719 1485.460938 1493.738281 C 1483.410156 1503.011719 1482.390625 1509.511719 1482.390625 1513.238281 C 1482.390625 1516.535156 1482.960938 1520.238281 1484.140625 1524.285156 L 1463.710938 1524.285156 C 1462.890625 1521.460938 1462.359375 1518.535156 1462.160156 1515.488281 C 1459.089844 1518.910156 1455.558594 1521.535156 1451.558594 1523.363281 C 1447.539062 1525.210938 1443.511719 1526.113281 1439.460938 1526.113281 C 1433.011719 1526.113281 1427.691406 1524.011719 1423.488281 1519.785156 C 1419.308594 1515.5625 1417.210938 1510.136719 1417.210938 1503.488281 C 1417.210938 1496.0625 1419.511719 1490.136719 1424.109375 1485.6875 C 1428.738281 1481.238281 1436.988281 1478.5625 1448.839844 1477.636719 C 1458.859375 1476.8125 1465.539062 1475.8125 1468.910156 1474.636719 C 1469.789062 1471.6875 1470.238281 1469.363281 1470.238281 1467.585938 C 1470.238281 1465.363281 1469.308594 1463.460938 1467.511719 1461.960938 C 1465.710938 1460.4375 1463.039062 1459.6875 1459.460938 1459.6875 C 1455.710938 1459.6875 1452.738281 1460.460938 1450.558594 1461.988281 C 1448.390625 1463.535156 1446.910156 1465.710938 1446.140625 1468.535156 Z M 1466.140625 1488.035156 C 1464.859375 1488.363281 1463.160156 1488.6875 1461.058594 1488.988281 C 1450.539062 1490.261719 1443.640625 1492.113281 1440.410156 1494.5625 C 1438.109375 1496.3125 1436.988281 1498.6875 1436.988281 1501.660156 C 1436.988281 1504.085938 1437.859375 1506.160156 1439.609375 1507.835938 C 1441.359375 1509.535156 1443.691406 1510.363281 1446.558594 1510.363281 C 1449.738281 1510.363281 1452.738281 1509.613281 1455.539062 1508.0625 C 1458.359375 1506.535156 1460.460938 1504.535156 1461.839844 1502.136719 C 1463.238281 1499.710938 1464.460938 1495.9375 1465.539062 1490.8125 Z M 1516.441406 1446.511719 L 1536.359375 1446.511719 L 1534.308594 1456.613281 C 1539.289062 1452.3125 1543.941406 1449.261719 1548.261719 1447.410156 C 1552.589844 1445.585938 1557.140625 1444.660156 1561.941406 1444.660156 C 1568.339844 1444.660156 1573.359375 1446.511719 1577.058594 1450.160156 C 1580.738281 1453.835938 1582.589844 1458.6875 1582.589844 1464.738281 C 1582.589844 1467.488281 1581.789062 1472.660156 1580.160156 1480.261719 L 1571.011719 1524.285156 L 1549.988281 1524.285156 L 1559.210938 1480.113281 C 1560.589844 1473.535156 1561.261719 1469.585938 1561.261719 1468.335938 C 1561.261719 1465.636719 1560.488281 1463.535156 1558.890625 1461.988281 C 1557.308594 1460.460938 1555.089844 1459.6875 1552.261719 1459.6875 C 1549.191406 1459.6875 1545.761719 1460.988281 1542.011719 1463.5625 C 1538.238281 1466.160156 1535.289062 1469.585938 1533.140625 1473.8125 C 1531.589844 1476.863281 1529.839844 1483.035156 1527.859375 1492.363281 L 1521.210938 1524.285156 L 1500.191406 1524.285156 Z M 1654.511719 1524.285156 L 1633.488281 1524.285156 L 1655.960938 1416.910156 L 1676.988281 1416.910156 L 1668.941406 1455.136719 C 1673.660156 1451.4375 1678.089844 1448.761719 1682.191406 1447.136719 C 1686.289062 1445.488281 1690.691406 1444.660156 1695.390625 1444.660156 C 1701.660156 1444.660156 1706.660156 1446.488281 1710.308594 1450.085938 C 1713.988281 1453.710938 1715.808594 1458.4375 1715.808594 1464.3125 C 1715.808594 1467.4375 1715.140625 1472.261719 1713.761719 1478.8125 L 1704.238281 1524.285156 L 1683.210938 1524.285156 L 1692.960938 1477.910156 C 1693.988281 1472.886719 1694.488281 1469.660156 1694.488281 1468.261719 C 1694.488281 1465.660156 1693.691406 1463.585938 1692.089844 1462.035156 C 1690.460938 1460.460938 1688.261719 1459.6875 1685.488281 1459.6875 C 1681.960938 1459.6875 1678.609375 1460.910156 1675.390625 1463.335938 C 1671.191406 1466.5625 1667.988281 1470.535156 1665.789062 1475.210938 C 1664.558594 1477.8125 1662.960938 1483.886719 1660.960938 1493.460938 Z M 1800.558594 1491.910156 L 1747.808594 1491.910156 C 1747.761719 1492.738281 1747.738281 1493.386719 1747.738281 1493.8125 C 1747.738281 1498.988281 1749.210938 1503.160156 1752.160156 1506.335938 C 1755.140625 1509.511719 1758.738281 1511.113281 1762.988281 1511.113281 C 1769.960938 1511.113281 1775.410156 1507.484375 1779.308594 1500.261719 L 1798.140625 1503.410156 C 1794.460938 1510.988281 1789.589844 1516.660156 1783.441406 1520.4375 C 1777.308594 1524.238281 1770.441406 1526.113281 1762.839844 1526.113281 C 1752.390625 1526.113281 1743.890625 1522.8125 1737.339844 1516.1875 C 1730.808594 1509.585938 1727.539062 1500.835938 1727.539062 1489.9375 C 1727.539062 1479.285156 1730.488281 1469.8125 1736.390625 1461.511719 C 1744.441406 1450.285156 1755.941406 1444.660156 1770.890625 1444.660156 C 1780.410156 1444.660156 1787.988281 1447.613281 1793.589844 1453.488281 C 1799.210938 1459.386719 1802.011719 1467.613281 1802.011719 1478.210938 C 1802.011719 1483.285156 1801.539062 1487.863281 1800.558594 1491.910156 Z M 1782.839844 1479.085938 C 1782.890625 1478.160156 1782.890625 1477.460938 1782.890625 1476.960938 C 1782.890625 1471.210938 1781.609375 1466.886719 1779.011719 1464.011719 C 1776.441406 1461.136719 1772.960938 1459.6875 1768.609375 1459.6875 C 1764.261719 1459.6875 1760.390625 1461.3125 1756.941406 1464.585938 C 1753.488281 1467.863281 1751.160156 1472.710938 1749.941406 1479.085938 Z M 1823.339844 1446.511719 L 1842.960938 1446.511719 L 1839.808594 1461.585938 C 1847.140625 1450.3125 1855.058594 1444.660156 1863.609375 1444.660156 C 1866.640625 1444.660156 1869.890625 1445.4375 1873.359375 1446.9375 L 1865.289062 1464.160156 C 1863.390625 1463.460938 1861.359375 1463.136719 1859.210938 1463.136719 C 1855.609375 1463.136719 1851.941406 1464.488281 1848.191406 1467.238281 C 1844.460938 1469.960938 1841.539062 1473.613281 1839.441406 1478.1875 C 1837.339844 1482.738281 1835.261719 1489.988281 1833.210938 1499.886719 L 1828.089844 1524.285156 L 1807.058594 1524.285156 Z M 1942.359375 1491.910156 L 1889.609375 1491.910156 C 1889.558594 1492.738281 1889.539062 1493.386719 1889.539062 1493.8125 C 1889.539062 1498.988281 1891.011719 1503.160156 1893.960938 1506.335938 C 1896.941406 1509.511719 1900.539062 1511.113281 1904.789062 1511.113281 C 1911.761719 1511.113281 1917.210938 1507.484375 1921.109375 1500.261719 L 1939.941406 1503.410156 C 1936.261719 1510.988281 1931.390625 1516.660156 1925.238281 1520.4375 C 1919.109375 1524.238281 1912.238281 1526.113281 1904.640625 1526.113281 C 1894.191406 1526.113281 1885.691406 1522.8125 1879.140625 1516.1875 C 1872.609375 1509.585938 1869.339844 1500.835938 1869.339844 1489.9375 C 1869.339844 1479.285156 1872.289062 1469.8125 1878.191406 1461.511719 C 1886.238281 1450.285156 1897.738281 1444.660156 1912.691406 1444.660156 C 1922.210938 1444.660156 1929.789062 1447.613281 1935.390625 1453.488281 C 1941.011719 1459.386719 1943.808594 1467.613281 1943.808594 1478.210938 C 1943.808594 1483.285156 1943.339844 1487.863281 1942.359375 1491.910156 Z M 1924.640625 1479.085938 C 1924.691406 1478.160156 1924.691406 1477.460938 1924.691406 1476.960938 C 1924.691406 1471.210938 1923.410156 1466.886719 1920.808594 1464.011719 C 1918.238281 1461.136719 1914.761719 1459.6875 1910.410156 1459.6875 C 1906.058594 1459.6875 1902.191406 1461.3125 1898.738281 1464.585938 C 1895.289062 1467.863281 1892.960938 1472.710938 1891.738281 1479.085938 L 1924.640625 1479.085938 "/>
<path fill-rule="evenodd" fill="rgb(100%, 100%, 100%)" fill-opacity="1" d="M 379.226562 1469.335938 L 650.757812 1469.335938 L 650.757812 1501.277344 L 379.226562 1501.277344 L 379.226562 1469.335938 "/>
<path fill-rule="evenodd" fill="rgb(100%, 100%, 100%)" fill-opacity="1" d="M 2049.410156 1469.335938 L 2320.949219 1469.335938 L 2320.949219 1501.277344 L 2049.410156 1501.277344 L 2049.410156 1469.335938 "/>
</svg>
